<svg xmlns="http://www.w3.org/2000/svg" xmlns:xlink="http://www.w3.org/1999/xlink" width="236.042" height="39.559" viewBox="0 0 236.042 39.559">
  <defs>
    <linearGradient id="linear-gradient" x2="1" gradientUnits="objectBoundingBox">
      <stop offset="0" stop-color="#51a4fb"/>
      <stop offset="1" stop-color="#51a4fb"/>
    </linearGradient>
  </defs>
  <g id="default" transform="translate(-40 -131.415)">
    <g id="_4448bab7-3e1e-432e-84fb-3a80232a9ece" data-name="4448bab7-3e1e-432e-84fb-3a80232a9ece" transform="translate(83.463 142.039)">
      <path id="Path_1" data-name="Path 1" d="M8.732,1.913h0a10.035,10.035,0,0,1,2.549.355h0A6.647,6.647,0,0,1,13.761,3.5h0a6.741,6.741,0,0,1,1.864,2.454h0a9.151,9.151,0,0,1,.753,3.978h0a9.082,9.082,0,0,1-.753,3.978h0a6.741,6.741,0,0,1-1.864,2.454h0a6.779,6.779,0,0,1-2.48,1.219h0a11.027,11.027,0,0,1-2.549.322h0a11.027,11.027,0,0,1-2.549-.322h0A6.608,6.608,0,0,1,3.7,16.369h0a6.809,6.809,0,0,1-1.9-2.454h0a9.082,9.082,0,0,1-.753-3.978h0A9.151,9.151,0,0,1,1.8,5.959h0A6.809,6.809,0,0,1,3.7,3.5h0a6.482,6.482,0,0,1,2.48-1.236h0A10.035,10.035,0,0,1,8.732,1.913Zm0,13.423h0a4.659,4.659,0,0,0,1.728-.3h0a3.318,3.318,0,0,0,1.3-.965h0a4.554,4.554,0,0,0,.838-1.676h0a9.544,9.544,0,0,0,.274-2.454h0A9.667,9.667,0,0,0,12.6,7.482h0a4.386,4.386,0,0,0-.838-1.659h0a3.253,3.253,0,0,0-1.3-.982h0A4.442,4.442,0,0,0,8.732,4.52h0a3.822,3.822,0,0,0-3.045,1.3h0A6.091,6.091,0,0,0,4.541,9.937h0a8.537,8.537,0,0,0,.308,2.454h0a4.554,4.554,0,0,0,.838,1.676h0A3.642,3.642,0,0,0,7,15.032H7A4.659,4.659,0,0,0,8.732,15.336ZM26.2,17.909h0a4.408,4.408,0,0,1-1.625-.271h0A5.447,5.447,0,0,1,23.391,17h0a4.969,4.969,0,0,1-.958-.931h0v4.5H19.217V5.451h2.5l.616,1.608h0a4.044,4.044,0,0,1,.924-.948h0a5.339,5.339,0,0,1,1.2-.643h0a4.464,4.464,0,0,1,1.745-.3h0a5.2,5.2,0,0,1,2.395.508h0a4.44,4.44,0,0,1,1.591,1.371h0a5.526,5.526,0,0,1,.889,2h0a10.51,10.51,0,0,1,.274,2.438h0a10.652,10.652,0,0,1-.274,2.438h0a5.864,5.864,0,0,1-.889,2.065h0A4.467,4.467,0,0,1,28.59,17.4h0A5.2,5.2,0,0,1,26.2,17.909ZM25.187,7.651h0a2.486,2.486,0,0,0-1.95.931h0a4.317,4.317,0,0,0-.8,2.895h0a4.736,4.736,0,0,0,.8,2.962h0a2.412,2.412,0,0,0,1.95,1.016h0a2.213,2.213,0,0,0,1.078-.271h0a2.58,2.58,0,0,0,.872-.745h0a4.017,4.017,0,0,0,.6-1.253h0a5.985,5.985,0,0,0,.222-1.71h0a5.876,5.876,0,0,0-.222-1.71h0a3.628,3.628,0,0,0-.6-1.185h0a2.472,2.472,0,0,0-.872-.711h0A2.627,2.627,0,0,0,25.187,7.651ZM39.742,17.909h0a9.108,9.108,0,0,1-3.284-.508h0a5.525,5.525,0,0,1-2.07-1.4h0a5.009,5.009,0,0,1-1.078-2.031h0a8.868,8.868,0,0,1-.325-2.421h0a8.38,8.38,0,0,1,.325-2.285h0A6.013,6.013,0,0,1,34.3,7.211h0a5.044,5.044,0,0,1,1.779-1.473h0a5.716,5.716,0,0,1,2.685-.576h0a6.029,6.029,0,0,1,2.788.576h0a4.851,4.851,0,0,1,1.779,1.473h0a5.709,5.709,0,0,1,.941,2.048h0a9.3,9.3,0,0,1,.291,2.285h0v1.066H36.082a2.7,2.7,0,0,0,.924,2.1h0a3.651,3.651,0,0,0,2.531.829h0a7.122,7.122,0,0,0,1.676-.186h0a9.017,9.017,0,0,0,1.317-.423h0a6.5,6.5,0,0,0,1.146-.609h0v2.641h0q0,.034-.308.169h0a7.735,7.735,0,0,1-.838.322h0a8.624,8.624,0,0,1-1.249.322h0A8.309,8.309,0,0,1,39.742,17.909Zm-3.66-7.55h5.439a3.813,3.813,0,0,0-.12-.9h0a2.681,2.681,0,0,0-.393-.914h0a2.472,2.472,0,0,0-.838-.711h0a3.163,3.163,0,0,0-1.4-.271h0a2.687,2.687,0,0,0-1.266.271h0a2.519,2.519,0,0,0-.821.711h0a3.453,3.453,0,0,0-.462.914h0a3.365,3.365,0,0,0-.137.9Zm18.3-5.2h0a4.365,4.365,0,0,1,1.881.372h0a3.7,3.7,0,0,1,1.3,1h0a4.019,4.019,0,0,1,.77,1.523h0a7.2,7.2,0,0,1,.239,1.9h0v7.7H55.359V11.02h0a5.368,5.368,0,0,0-.479-2.59h0A1.755,1.755,0,0,0,53.221,7.6h0a2.258,2.258,0,0,0-2.087,1.168h0a6.02,6.02,0,0,0-.684,3.064h0v5.823H47.234V5.451h2.395l.65,1.659h0q.239-.254.53-.609h0a3.381,3.381,0,0,1,.735-.626h0a4.049,4.049,0,0,1,1.112-.508h0A6.182,6.182,0,0,1,54.384,5.163Zm18.935-.118h0a1.454,1.454,0,0,0-.735.152h0a.983.983,0,0,0-.359.389h0a1.4,1.4,0,0,0-.154.508h0q-.017.288-.017.542h2.155l-.359,2.319h-1.8v8.7H68.82v-8.7H67.093V6.636H68.82V6.043h0a3.634,3.634,0,0,1,.462-1.964h0a3.01,3.01,0,0,1,1.18-1.117h0a4.629,4.629,0,0,1,1.522-.491h0a8.88,8.88,0,0,1,1.505-.1h0a7.943,7.943,0,0,1,1.163.1h0l.462.085h0L74.772,5.2h0q-.188-.034-.428-.085h0q-.188-.017-.462-.034h0A4.6,4.6,0,0,0,73.319,5.045Zm9.356.118h0a8.49,8.49,0,0,1,2.087.288h0a6.1,6.1,0,0,1,2.1,1h0A5.475,5.475,0,0,1,88.507,8.4h0a6.527,6.527,0,0,1,.667,3.148h0a6.589,6.589,0,0,1-.667,3.148h0a5.475,5.475,0,0,1-1.642,1.947h0a6.1,6.1,0,0,1-2.1,1h0a8.989,8.989,0,0,1-2.087.271h0a8.777,8.777,0,0,1-2.07-.271h0a6.1,6.1,0,0,1-2.1-1h0a5.4,5.4,0,0,1-1.608-1.947h0a6.734,6.734,0,0,1-.65-3.148h0a6.671,6.671,0,0,1,.65-3.148h0A5.4,5.4,0,0,1,78.5,6.45h0a6.1,6.1,0,0,1,2.1-1h0A8.291,8.291,0,0,1,82.675,5.163Zm0,10.376h0a2.832,2.832,0,0,0,2.241-1.033h0a4.393,4.393,0,0,0,.907-2.962h0a4.354,4.354,0,0,0-.907-2.962h0a2.852,2.852,0,0,0-2.241-1.016h0A2.781,2.781,0,0,0,80.5,8.582h0a4.41,4.41,0,0,0-.889,2.962h0a5.523,5.523,0,0,0,.239,1.693h0a3.84,3.84,0,0,0,.65,1.253h0a2.8,2.8,0,0,0,.975.779h0A2.733,2.733,0,0,0,82.675,15.539ZM99.283,5.265v3.25h0a6.08,6.08,0,0,0-.992-.135h0a6.782,6.782,0,0,0-.838.017h0a2.632,2.632,0,0,0-1.249.322h0a1.976,1.976,0,0,0-.753.745h0a2.943,2.943,0,0,0-.359,1.049h0a6.839,6.839,0,0,0-.1,1.2h0v5.941H91.757V5.569h2.378l.5,2.658h0l.068-.271h0a2.771,2.771,0,0,1,.239-.66h0a3.808,3.808,0,0,1,.513-.846h0a3.409,3.409,0,0,1,.838-.762h0a3.343,3.343,0,0,1,1.249-.474h0a4.866,4.866,0,0,1,1.745.051Zm7.184-3.081h12.059V4.757h-4.362v12.9h-3.318V4.757h-4.379Zm16.711,2.979h0a6.3,6.3,0,0,1,1.693.254h0a5.655,5.655,0,0,1,1.71.813h0a4.2,4.2,0,0,1,1.283,1.422h0a3.946,3.946,0,0,1,.479,2.133h0v7.871H126l-.068-.288h0q-.068-.288-.154-.643h0q-.086-.355-.154-.626h0q-.086-.271-.085-.237h0a3.44,3.44,0,0,1-.872,1.033h0a4.454,4.454,0,0,1-1.249.711h0a4.935,4.935,0,0,1-1.847.3h0a5.224,5.224,0,0,1-1.505-.22h0a4.09,4.09,0,0,1-1.334-.66h0a3.592,3.592,0,0,1-.958-1.1h0a3.186,3.186,0,0,1-.393-1.54h0a3.691,3.691,0,0,1,.257-1.659h0a3.453,3.453,0,0,1,.855-1.236h0a4.414,4.414,0,0,1,1.351-.846h0a6.791,6.791,0,0,1,1.728-.44h0a14.678,14.678,0,0,1,1.933-.118h0q1.061,0,1.9.051h0V9.767h0a2.267,2.267,0,0,0-.462-1.54h0a2.052,2.052,0,0,0-1.129-.66h0a4.165,4.165,0,0,0-1.505-.034h0a11.532,11.532,0,0,0-1.557.339h0q-.736.237-1.3.474h0a3.606,3.606,0,0,0-.7.372h0V6.331h0a1.96,1.96,0,0,1,.428-.2h0a10.5,10.5,0,0,1,1.026-.389h0a12.377,12.377,0,0,1,1.4-.389h0A6.812,6.812,0,0,1,123.178,5.163Zm1.522,9.412h0a2.828,2.828,0,0,0,.547-1.168h0a6.257,6.257,0,0,0,.137-1.337h-1.4a10.666,10.666,0,0,0-1.163.068h0a3.964,3.964,0,0,0-1.146.288h0a2.16,2.16,0,0,0-.889.626h0a1.628,1.628,0,0,0-.359,1.117h0a1.23,1.23,0,0,0,.582,1.134h0a2.743,2.743,0,0,0,1.454.355h0a2.823,2.823,0,0,0,1.3-.288h0A2.911,2.911,0,0,0,124.7,14.575Zm17.583-9.124-4.413,6.263h0q.513.677,1.078,1.439h0q.582.762,1.163,1.54h0q.6.779,1.163,1.54h0q.547.762,1.06,1.422H138.64l-3.3-4.638h-.718v4.638h-3.216V2.505h3.216V10.36h.7l.239-.372h0q.257-.372.633-.914h0q.359-.542.8-1.168h0q.428-.626.787-1.168h0q.359-.559.6-.914h0l.257-.372h3.643Zm7.8,12.458h0a8.967,8.967,0,0,1-3.267-.508h0A5.5,5.5,0,0,1,144.73,16h0a5.009,5.009,0,0,1-1.078-2.031h0a9.33,9.33,0,0,1-.308-2.421h0a8.814,8.814,0,0,1,.308-2.285h0a6.013,6.013,0,0,1,.992-2.048h0a5.044,5.044,0,0,1,1.779-1.473h0a5.78,5.78,0,0,1,2.685-.576h0a6.029,6.029,0,0,1,2.788.576h0a4.851,4.851,0,0,1,1.779,1.473h0a5.554,5.554,0,0,1,.958,2.048h0a9.852,9.852,0,0,1,.274,2.285h0v1.066h-8.484a2.7,2.7,0,0,0,.924,2.1h0a3.651,3.651,0,0,0,2.531.829h0a7.122,7.122,0,0,0,1.676-.186h0a8.2,8.2,0,0,0,1.317-.423h0a6.5,6.5,0,0,0,1.146-.609h0v2.641h0q0,.034-.308.169h0a6.229,6.229,0,0,1-.838.322h0a8.624,8.624,0,0,1-1.249.322h0A8.309,8.309,0,0,1,150.083,17.909Zm-3.66-7.55h5.439a4.415,4.415,0,0,0-.1-.9h0a2.975,2.975,0,0,0-.411-.914h0a2.472,2.472,0,0,0-.838-.711h0a3.163,3.163,0,0,0-1.4-.271h0a2.752,2.752,0,0,0-1.266.271h0a2.519,2.519,0,0,0-.821.711h0a3.084,3.084,0,0,0-.445.914h0a3.022,3.022,0,0,0-.154.9Zm16.643-5.2h0a8.49,8.49,0,0,1,2.087.288h0a6.1,6.1,0,0,1,2.1,1h0A5.475,5.475,0,0,1,168.9,8.4h0a6.527,6.527,0,0,1,.667,3.148h0a6.589,6.589,0,0,1-.667,3.148h0a5.475,5.475,0,0,1-1.642,1.947h0a6.1,6.1,0,0,1-2.1,1h0a8.989,8.989,0,0,1-2.087.271h0a8.989,8.989,0,0,1-2.087-.271h0a6.125,6.125,0,0,1-2.087-1h0a5.554,5.554,0,0,1-1.625-1.947h0a6.888,6.888,0,0,1-.633-3.148h0a6.823,6.823,0,0,1,.633-3.148h0a5.554,5.554,0,0,1,1.625-1.947h0a6.125,6.125,0,0,1,2.087-1h0A8.49,8.49,0,0,1,163.066,5.163Zm0,10.376h0a2.832,2.832,0,0,0,2.241-1.033h0a4.393,4.393,0,0,0,.907-2.962h0a4.353,4.353,0,0,0-.907-2.962h0a2.852,2.852,0,0,0-2.241-1.016h0a2.781,2.781,0,0,0-2.172,1.016h0A4.41,4.41,0,0,0,160,11.545h0a5.523,5.523,0,0,0,.239,1.693h0a3.841,3.841,0,0,0,.65,1.253h0a2.853,2.853,0,0,0,.958.779h0A2.771,2.771,0,0,0,163.066,15.539Zm13.444,2.37h0a6.414,6.414,0,0,1-1.967-.271h0a3.057,3.057,0,0,1-1.368-.948h0a4.212,4.212,0,0,1-.821-1.676h0a9.984,9.984,0,0,1-.274-2.522h0V5.451h3.2v6.619h0a5.216,5.216,0,0,0,.479,2.556h0a1.755,1.755,0,0,0,1.659.829h0A2.265,2.265,0,0,0,179.5,14.3h0a5.925,5.925,0,0,0,.684-3.047h0V5.451H183.4v12.2h-2.446l-.65-1.676h0l-.239.288h0a3.79,3.79,0,0,1-.718.66h0a5.468,5.468,0,0,1-1.18.677h0A4.141,4.141,0,0,1,176.51,17.909Zm15.223-2.454h0a6.7,6.7,0,0,0,1.3-.118h0q.274-.068.564-.152h0l.034,2.471h0q-.445.068-.924.135h0q-.393.051-.958.085h0q-.547.034-1.163.034h0a3.49,3.49,0,0,1-1.608-.542h0a3.992,3.992,0,0,1-1.095-1.185h0a4.389,4.389,0,0,1-.479-2.251h0V8.955h-2.36V6.636h2.36V3.216l3.181-.711v4.13h2.891V8.955h-2.839v4.807h0a2.629,2.629,0,0,0,.068.609h0a1.959,1.959,0,0,0,.239.542h0a2.009,2.009,0,0,0,.359.389h0A.708.708,0,0,0,191.733,15.455Z" transform="translate(-1.052 -1.913)"/>
    </g>
    <g id="_50cf4f92-754a-40e3-a0d3-a68a819096f8" data-name="50cf4f92-754a-40e3-a0d3-a68a819096f8" transform="translate(40 131.415)">
      <path id="Path_2" data-name="Path 2" d="M27.6,17.794l-.142-.086M14.382,18.8l1.417-.559V16.694l-5.6,2.213h0a.724.724,0,0,0-.179.1.715.715,0,0,0-.271.667l2.4,16.789a.721.721,0,0,0,.328.505l11.636,7.344c.007,0,.015.005.022.01s.012.01.02.014a.7.7,0,0,0,.1.038c.02.007.038.017.058.023a.689.689,0,0,0,.382,0c.02-.005.039-.015.058-.023a.674.674,0,0,0,.1-.038c.008,0,.012-.01.02-.014s.015-.006.022-.01L36.525,36.97a.721.721,0,0,0,.329-.506l2.4-16.789a.719.719,0,0,0-.439-.763l-3.394-1.4-1.6-.66c0-.013,0-.026,0-.039L31.979,6.89A2.464,2.464,0,0,0,30.8,5.183a2.509,2.509,0,0,0-2.085-.163L18.944,8.449a3.808,3.808,0,0,0-2.423,3.394V28.251a.726.726,0,0,0,1.451,0V26.409l0,0V25.365l0,0V23.34h0V21.792h0v-.811h0v-.654h0V17.383h0V15.834h0V11.843A2.391,2.391,0,0,1,19.429,9.8L29.2,6.374a1.04,1.04,0,0,1,.873.052,1.019,1.019,0,0,1,.482.722l1.672,9.041-.794-.328,0-.015-.561-.239.011.025-5.78-2.389a.735.735,0,0,0-.55,0L18.7,15.547v1.547l6.107-2.412,6.908,2.855.01.023.095.038-.01-.021,1.733.716,3.071,1.269-1.2.48.015-.031-.743.322L24.5,24.39l-5.8-2.309V23.63l5.07,2.02v.692L19.6,24.389l-.9.661v.824l.978-.716,4.092,1.917V41.549L16.177,29.2a1.442,1.442,0,0,1-.283-.459l-.344-.56L15.8,28v-.825l-1.139.835,2.548,4.141-3.748,3.253-1.92-13.451L15.8,24.039V23.3l-4.373-2.141-.065-.452L15.8,22.474V20.925l-3.381-1.347,1.166-.461m.143,16.938,3.835-3.329,5.783,9.4Zm21.737-.12L25.225,42.4V25.65l12.41-4.944-2.173,15.23Z" transform="translate(-9.742 -4.867)" fill="url(#linear-gradient)"/>
    </g>
  </g>
</svg>
